<svg width="86" height="15" viewBox="0 0 86 15" fill="none" xmlns="http://www.w3.org/2000/svg">
<path d="M8.07955 6H7.02273C6.96023 5.69602 6.85085 5.42898 6.6946 5.19886C6.54119 4.96875 6.35369 4.77557 6.1321 4.61932C5.91335 4.46023 5.67045 4.34091 5.40341 4.26136C5.13636 4.18182 4.85795 4.14205 4.56818 4.14205C4.03977 4.14205 3.56108 4.27557 3.1321 4.54261C2.70597 4.80966 2.36648 5.20312 2.11364 5.72301C1.86364 6.2429 1.73864 6.88068 1.73864 7.63636C1.73864 8.39205 1.86364 9.02983 2.11364 9.54972C2.36648 10.0696 2.70597 10.4631 3.1321 10.7301C3.56108 10.9972 4.03977 11.1307 4.56818 11.1307C4.85795 11.1307 5.13636 11.0909 5.40341 11.0114C5.67045 10.9318 5.91335 10.8139 6.1321 10.6577C6.35369 10.4986 6.54119 10.304 6.6946 10.0739C6.85085 9.84091 6.96023 9.57386 7.02273 9.27273H8.07955C8 9.71875 7.85511 10.1179 7.64489 10.4702C7.43466 10.8224 7.1733 11.1222 6.8608 11.3693C6.5483 11.6136 6.19744 11.7997 5.80824 11.9276C5.42188 12.0554 5.00852 12.1193 4.56818 12.1193C3.82386 12.1193 3.16193 11.9375 2.58239 11.5739C2.00284 11.2102 1.54688 10.6932 1.21449 10.0227C0.882102 9.35227 0.715909 8.55682 0.715909 7.63636C0.715909 6.71591 0.882102 5.92045 1.21449 5.25C1.54688 4.57955 2.00284 4.0625 2.58239 3.69886C3.16193 3.33523 3.82386 3.15341 4.56818 3.15341C5.00852 3.15341 5.42188 3.21733 5.80824 3.34517C6.19744 3.47301 6.5483 3.66051 6.8608 3.90767C7.1733 4.15199 7.43466 4.45028 7.64489 4.80256C7.85511 5.15199 8 5.55114 8.07955 6ZM10.1452 12H9.03729L12.2418 3.27273H13.3327L16.5373 12H15.4293L12.8214 4.65341H12.7532L10.1452 12ZM10.5543 8.59091H15.0202V9.52841H10.5543V8.59091ZM17.8967 12V3.27273H20.8455C21.5273 3.27273 22.087 3.3892 22.5245 3.62216C22.962 3.85227 23.2859 4.16903 23.4961 4.57244C23.7063 4.97585 23.8114 5.43466 23.8114 5.94886C23.8114 6.46307 23.7063 6.91903 23.4961 7.31676C23.2859 7.71449 22.9634 8.02699 22.5288 8.25426C22.0941 8.47869 21.5387 8.59091 20.8626 8.59091H18.4762V7.63636H20.8285C21.2944 7.63636 21.6694 7.56818 21.9535 7.43182C22.2404 7.29545 22.4478 7.10227 22.5756 6.85227C22.7063 6.59943 22.7717 6.2983 22.7717 5.94886C22.7717 5.59943 22.7063 5.29403 22.5756 5.03267C22.445 4.77131 22.2362 4.5696 21.9492 4.42756C21.6623 4.28267 21.283 4.21023 20.8114 4.21023H18.9535V12H17.8967ZM22.0046 8.07955L24.1523 12H22.9251L20.8114 8.07955H22.0046ZM25.2827 12V11.233L29.9872 4.21023H25.2315V3.27273H31.2486V4.03977L26.544 11.0625H31.2997V12H25.2827Z" fill="#000207"/>
<path fill-rule="evenodd" clip-rule="evenodd" d="M37 0C36.4477 0 36 0.447715 36 1V14C36 14.5523 36.4477 15 37 15H85C85.5523 15 86 14.5523 86 14V1C86 0.447715 85.5523 0 85 0H37ZM40.1979 3.27273V12H41.2547V8.09659H45.0388V7.15909H41.2547V4.21023H45.4309V3.27273H40.1979ZM48.2977 12V3.27273H47.2409V12H48.2977ZM57.3371 12V3.27273H56.2974V10.142H56.2121L51.4394 3.27273H50.4167V12H51.4735V5.14773H51.5587L56.3144 12H57.3371ZM59.4518 12H62.145C63.0314 12 63.7842 11.8253 64.4035 11.4759C65.0229 11.1236 65.4944 10.6207 65.8183 9.96733C66.1422 9.31108 66.3041 8.52841 66.3041 7.61932C66.3041 6.71591 66.1436 5.94034 65.8226 5.29261C65.5015 4.64205 65.0399 4.14347 64.4376 3.79688C63.8354 3.44744 63.1109 3.27273 62.2643 3.27273H59.4518V12ZM62.0768 11.0625H60.5086V4.21023H62.1961C62.878 4.21023 63.4476 4.34801 63.905 4.62358C64.3623 4.89631 64.7061 5.28835 64.9362 5.79972C65.1663 6.30824 65.2814 6.91477 65.2814 7.61932C65.2814 8.32955 65.1649 8.94176 64.9319 9.45597C64.699 9.97017 64.3453 10.3665 63.8709 10.6449C63.3964 10.9233 62.7984 11.0625 62.0768 11.0625ZM68.0768 3.27273V12H73.4121V11.0625H69.1336V8.09659H73.0711V7.15909H69.1336V4.21023H73.3439V3.27273H68.0768ZM75.2487 3.27273V12H76.3055V8.59091H78.2146C78.2902 8.59091 78.3643 8.58951 78.4369 8.5867L80.2771 12H81.5044L79.5329 8.40129C79.6564 8.35927 79.7724 8.31026 79.8808 8.25426C80.3155 8.02699 80.6379 7.71449 80.8481 7.31676C81.0584 6.91903 81.1635 6.46307 81.1635 5.94886C81.1635 5.43466 81.0584 4.97585 80.8481 4.57244C80.6379 4.16903 80.314 3.85227 79.8765 3.62216C79.439 3.3892 78.8794 3.27273 78.1976 3.27273H75.2487ZM76.3055 7.63636H78.1805C78.6464 7.63636 79.0214 7.56818 79.3055 7.43182C79.5925 7.29545 79.7998 7.10227 79.9277 6.85227C80.0584 6.59943 80.1237 6.2983 80.1237 5.94886C80.1237 5.59943 80.0584 5.29403 79.9277 5.03267C79.797 4.77131 79.5882 4.5696 79.3013 4.42756C79.0143 4.28267 78.6351 4.21023 78.1635 4.21023H76.3055V7.63636Z" fill="#2C59FF"/>
</svg>
